# xmcd
#
# Track frame offsets:
#	150
#	27903
#	48934
#	78346
#	121901
#	131109
#	144936
#	173553
#	183318
#	202291
#
# Disc length: 2931 seconds
# Revision: 0
# Processed by: cddbd v1.5.2PL0 Copyright (c) Steve Scherf et al.
# Submitted via: dBpowerAMP V12.0
#
DISCID=850b710a
DTITLE=Hale Dwoskin - Practical Freedom CD 01 - The Inner Stretch
DYEAR=2005
DGENRE=Speech
TTITLE0=Introduction to Holistic Releasing
TTITLE1=Guidelines and Instructions
TTITLE2=Feeling Uncomfortable in the Body
TTITLE3=Wanting to Change It - Take a Break
TTITLE4=Welcome Back
TTITLE5=Contraction and Expansion
TTITLE6=Happiness - Freedom
TTITLE7=Scarcity
TTITLE8=Likes and Dislikes about Yourself and Others
TTITLE9=Being Closed - Conclusion
EXTD=
EXTT0=
EXTT1=
EXTT2=
EXTT3=
EXTT4=
EXTT5=
EXTT6=
EXTT7=
EXTT8=
EXTT9=
PLAYORDER=
